<?xml version="1.0" standalone="no"?>
<!DOCTYPE svg PUBLIC "-//W3C//DTD SVG 20010904//EN"
 "http://www.w3.org/TR/2001/REC-SVG-20010904/DTD/svg10.dtd">
<svg version="1.0" xmlns="http://www.w3.org/2000/svg"
 width="1370.000000pt" height="1370.000000pt" viewBox="0 0 1370.000000 1370.000000"
 preserveAspectRatio="xMidYMid meet">

<g transform="translate(0.000000,1370.000000) scale(0.100000,-0.100000)"
fill="#000000" stroke="none">
<path d="M7677 12256 c-237 -178 -521 -484 -694 -748 -255 -389 -328 -806
-200 -1148 62 -163 164 -318 370 -559 108 -127 315 -357 410 -459 l31 -32
-109 -110 c-60 -61 -113 -109 -116 -108 -11 5 -187 217 -234 282 -62 88 -93
158 -106 249 -12 84 -26 111 -50 102 -18 -7 -406 -413 -516 -540 -248 -285
-474 -613 -604 -875 -208 -419 -267 -802 -174 -1125 38 -134 114 -278 311
-595 307 -495 422 -708 449 -837 18 -83 19 -124 3 -158 -7 -15 -84 -92 -173
-171 l-160 -144 -6 132 c-9 216 -58 398 -163 608 -111 224 -234 397 -559 789
-310 375 -388 476 -498 652 -323 516 -405 1137 -222 1689 64 193 156 344 345
567 91 106 117 147 105 160 -11 10 -86 -60 -244 -229 -256 -273 -410 -479
-521 -695 -200 -392 -253 -844 -152 -1306 29 -134 85 -287 156 -432 120 -245
244 -423 592 -847 342 -418 475 -605 577 -813 112 -230 157 -409 159 -632 1
-114 4 -143 15 -143 7 0 86 71 175 159 88 87 213 205 276 262 362 328 561 539
667 704 69 108 78 241 28 392 -44 131 -79 191 -495 873 -194 318 -258 474
-280 685 -39 356 127 840 433 1264 l61 85 16 -55 c34 -112 88 -193 324 -477
57 -70 59 -75 46 -98 -8 -13 -45 -72 -81 -131 -182 -294 -279 -554 -282 -753
-1 -110 13 -177 58 -275 37 -82 255 -440 326 -536 45 -61 130 -149 144 -149
23 0 76 44 175 147 389 399 563 655 614 905 20 97 21 272 1 375 -44 230 -164
459 -394 753 -50 63 -91 117 -91 120 0 3 49 57 108 119 l108 114 89 -99 c259
-285 470 -580 542 -756 75 -185 101 -420 69 -619 -33 -198 -122 -421 -243
-609 -76 -116 -110 -156 -403 -460 -239 -248 -320 -344 -320 -377 0 -29 32 -5
190 142 383 354 643 650 862 980 370 556 447 1029 238 1462 -85 178 -208 346
-474 651 l-116 134 29 36 c16 21 59 66 94 101 l65 64 84 -89 c169 -178 392
-421 458 -499 163 -192 262 -368 301 -530 30 -127 23 -336 -15 -475 -43 -151
-102 -274 -192 -398 -19 -26 -14 -37 14 -28 28 9 214 195 291 291 310 386 419
782 309 1125 -73 228 -212 414 -676 907 l-143 153 125 138 c143 157 216 248
216 269 0 38 -85 -41 -344 -322 l-37 -40 -56 60 c-441 472 -737 905 -837 1224
-68 214 -72 442 -11 584 11 27 -5 20 -68 -27z m-387 -541 c-5 -22 -10 -91 -10
-153 -1 -407 225 -815 814 -1470 61 -68 112 -127 114 -132 2 -6 -38 -53 -90
-105 l-93 -96 -186 208 c-330 367 -448 514 -542 672 -170 286 -199 587 -87
921 29 88 79 204 85 198 2 -2 0 -21 -5 -43z m-143 -3347 c197 -268 307 -492
344 -702 19 -111 -3 -407 -30 -406 -19 1 -223 318 -339 525 -100 180 -125 283
-103 438 12 84 50 227 60 227 4 0 34 -37 68 -82z"/>
<path d="M6780 3735 l0 -305 -130 0 -130 0 0 205 0 205 -45 0 -45 0 -2 -202
-3 -203 -72 -3 -73 -3 0 -39 0 -40 460 0 460 0 0 345 0 345 -45 0 -45 0 0
-305 0 -305 -120 0 -120 0 0 305 0 305 -45 0 -45 0 0 -305z"/>
<path d="M9590 3735 l0 -305 -85 0 c-62 0 -93 4 -110 16 -23 15 -25 22 -25
105 0 155 -28 227 -103 265 -41 22 -169 29 -240 14 -48 -10 -60 -16 -69 -38
-7 -15 -13 -98 -15 -192 l-2 -165 -76 -3 -75 -3 0 -39 0 -40 290 0 c287 0 290
0 290 21 l0 20 26 -20 c24 -19 40 -21 155 -21 l129 0 0 345 0 345 -45 0 -45 0
0 -305z m-387 11 c59 -24 71 -56 75 -193 l4 -123 -120 0 c-145 0 -136 -11
-135 166 0 155 5 164 84 164 33 0 74 -6 92 -14z"/>
<path d="M9860 3695 l0 -345 45 0 45 0 0 345 0 345 -45 0 -45 0 0 -345z"/>
<path d="M4170 3975 l0 -45 40 0 40 0 0 45 0 45 -40 0 -40 0 0 -45z"/>
<path d="M4300 3975 l0 -45 40 0 40 0 0 45 0 45 -40 0 -40 0 0 -45z"/>
<path d="M6360 3975 l0 -45 40 0 40 0 0 45 0 45 -40 0 -40 0 0 -45z"/>
<path d="M6490 3975 l0 -45 40 0 40 0 0 45 0 45 -40 0 -40 0 0 -45z"/>
<path d="M8550 3970 l0 -50 40 0 40 0 0 50 0 50 -40 0 -40 0 0 -50z"/>
<path d="M5027 3836 c-85 -32 -112 -91 -112 -246 0 -86 4 -114 22 -152 30 -66
63 -81 191 -86 114 -5 112 -2 92 -87 -15 -67 -39 -79 -143 -71 l-88 7 3 -38 3
-38 65 -8 c93 -11 144 -1 185 34 35 31 62 94 67 159 l3 35 265 5 c227 4 268 7
289 22 22 16 25 16 49 0 21 -14 57 -18 189 -20 l163 -4 0 41 c0 41 0 41 -39
41 l-38 0 -6 138 c-3 75 -11 165 -18 200 l-11 62 -39 0 -38 0 7 -67 c4 -38 7
-126 7 -198 l0 -130 -60 -3 c-99 -5 -99 -5 -96 192 l3 166 -46 0 -46 0 0 -135
c0 -191 -17 -225 -114 -225 l-46 0 0 180 0 180 -45 0 -45 0 -2 -177 -3 -178
-137 -3 -138 -3 0 200 c0 232 16 209 -150 217 -77 3 -115 1 -143 -10z m187
-72 c14 -5 16 -30 16 -170 l0 -164 -72 0 c-127 0 -167 51 -155 196 5 71 25
109 68 131 25 13 116 17 143 7z"/>
<path d="M4152 3815 c-90 -28 -117 -86 -116 -245 0 -120 20 -176 71 -199 15
-8 76 -16 136 -19 l107 -5 0 -31 c0 -47 -31 -99 -70 -118 -52 -26 -368 -26
-420 0 -69 34 -82 103 -55 282 16 105 13 112 -40 108 -29 -3 -30 -5 -42 -73
-24 -145 -27 -231 -9 -279 24 -62 81 -111 145 -125 67 -14 355 -14 421 0 91
20 159 103 160 197 l0 42 55 0 55 0 0 39 0 40 -52 3 -53 3 -3 191 c-2 189 -3
192 -25 198 -41 11 -221 5 -265 -9z m198 -225 l0 -160 -75 0 c-127 0 -150 24
-150 156 0 126 36 164 158 164 l67 0 0 -160z"/>
<path d="M4708 3633 l-3 -198 -72 -3 -73 -3 0 -39 0 -40 120 0 120 0 0 240 0
240 -45 0 -45 0 -2 -197z"/>
<path d="M8548 3633 l-3 -198 -205 -3 c-114 -1 -217 2 -232 7 -25 9 -30 7 -44
-21 -15 -29 -15 -32 1 -44 9 -7 42 -16 72 -20 l55 -7 -5 -45 c-3 -32 -13 -53
-36 -76 l-31 -31 -178 -3 c-168 -3 -179 -2 -222 20 -25 13 -55 39 -68 58 -22
32 -24 42 -18 119 4 46 9 94 12 106 5 20 1 23 -38 28 -23 3 -44 5 -45 4 -1 -1
-7 -50 -14 -109 -10 -84 -10 -116 0 -148 17 -56 61 -103 123 -131 48 -21 71
-24 231 -27 191 -4 249 4 300 40 36 26 77 110 77 161 l0 37 250 0 250 0 0 40
0 40 -70 0 -70 0 0 200 0 200 -45 0 -45 0 -2 -197z"/>
<path d="M4640 3225 l0 -45 40 0 40 0 0 45 0 45 -40 0 -40 0 0 -45z"/>
<path d="M4770 3225 l0 -45 40 0 40 0 0 45 0 45 -40 0 -40 0 0 -45z"/>
<path d="M3836 2543 c-33 -120 -61 -224 -64 -231 -3 -10 2 -13 19 -10 19 2 26
13 38 61 l15 57 102 0 101 0 17 -60 c13 -47 21 -60 37 -60 10 0 19 3 19 6 0 4
-27 105 -60 226 -33 120 -60 221 -60 223 0 3 -24 5 -53 5 l-52 0 -59 -217z
m162 58 c18 -65 32 -124 32 -130 0 -7 -29 -11 -85 -11 -51 0 -85 4 -85 10 0
13 60 232 67 243 2 4 12 7 22 7 14 0 24 -23 49 -119z"/>
<path d="M4200 2530 c0 -223 1 -230 20 -230 19 0 20 7 20 230 0 223 -1 230
-20 230 -19 0 -20 -7 -20 -230z"/>
<path d="M4940 2530 c0 -223 1 -230 20 -230 19 0 20 7 20 205 0 113 4 205 9
205 4 0 39 -88 76 -196 65 -187 69 -195 93 -192 23 3 30 19 90 196 36 105 70
192 74 192 4 0 8 -92 8 -205 0 -198 1 -205 20 -205 19 0 20 7 20 231 l0 230
-42 -3 -41 -3 -63 -189 c-35 -104 -65 -190 -67 -193 -2 -2 -33 84 -67 192
l-64 195 -43 0 -43 0 0 -230z"/>
<path d="M5574 2746 c-69 -30 -101 -120 -91 -258 9 -142 64 -194 191 -186 46
3 74 10 93 24 49 37 58 67 58 204 0 143 -13 178 -75 211 -41 22 -130 25 -176
5z m160 -41 c38 -25 51 -70 51 -180 0 -149 -25 -185 -127 -185 -98 0 -128 44
-128 190 0 145 30 190 128 190 31 0 62 -6 76 -15z"/>
<path d="M5930 2530 c0 -223 1 -230 20 -230 19 0 20 7 20 211 0 159 3 210 12
207 7 -3 51 -96 98 -209 l87 -204 46 -3 47 -3 0 230 0 231 -25 0 -25 0 0 -210
c0 -115 -4 -210 -8 -210 -4 0 -48 95 -96 210 l-89 210 -43 0 -44 0 0 -230z"/>
<path d="M6406 2543 c-33 -120 -61 -224 -64 -231 -3 -10 2 -13 19 -10 19 2 26
13 38 61 l15 57 102 0 101 0 17 -60 c13 -47 21 -60 37 -60 10 0 19 3 19 6 0 4
-27 105 -60 226 -33 120 -60 221 -60 223 0 3 -24 5 -53 5 l-52 0 -59 -217z
m162 58 c18 -65 32 -124 32 -130 0 -7 -29 -11 -85 -11 -51 0 -85 4 -85 10 0
13 60 232 67 243 2 4 12 7 22 7 14 0 24 -23 49 -119z"/>
<path d="M6910 2530 c0 -223 1 -230 20 -230 19 0 20 7 20 205 0 113 4 205 9
205 4 0 39 -88 76 -196 65 -187 69 -195 93 -192 23 3 30 19 90 196 36 105 70
192 74 192 4 0 8 -92 8 -205 0 -198 1 -205 20 -205 19 0 20 7 20 231 l0 230
-42 -3 -41 -3 -63 -189 c-35 -104 -65 -190 -67 -193 -2 -2 -33 84 -67 192
l-64 195 -43 0 -43 0 0 -230z"/>
<path d="M7496 2543 c-33 -120 -61 -224 -64 -231 -3 -10 2 -13 19 -10 19 2 26
13 38 61 l15 57 102 0 101 0 17 -60 c13 -47 21 -60 37 -60 10 0 19 3 19 6 0 4
-27 105 -60 226 -33 120 -60 221 -60 223 0 3 -24 5 -53 5 l-52 0 -59 -217z
m162 58 c18 -65 32 -124 32 -130 0 -7 -29 -11 -85 -11 -51 0 -85 4 -85 10 0
13 60 232 67 243 2 4 12 7 22 7 14 0 24 -23 49 -119z"/>
<path d="M7860 2531 c0 -224 1 -231 20 -231 19 0 20 7 20 90 l0 90 69 0 68 0
42 -90 c36 -77 45 -90 66 -90 l24 0 -35 78 c-20 42 -38 83 -41 89 -3 7 11 27
30 46 62 57 58 173 -6 221 -24 18 -46 21 -143 25 l-114 3 0 -231z m213 178
c52 -24 65 -122 22 -164 -22 -23 -32 -25 -110 -25 l-85 0 0 100 0 100 75 0
c41 0 85 -5 98 -11z"/>
<path d="M8260 2530 c0 -223 1 -230 20 -230 19 0 20 7 20 105 l0 105 43 0 42
0 60 -105 c54 -94 63 -105 88 -105 l29 0 -20 33 c-11 17 -43 70 -70 115 l-50
84 50 86 c84 146 83 142 54 142 -21 0 -33 -16 -83 -105 l-58 -105 -42 0 -43 0
0 105 c0 98 -1 105 -20 105 -19 0 -20 -7 -20 -230z"/>
<path d="M8590 2740 c0 -18 7 -20 70 -20 l70 0 0 -210 0 -210 25 0 25 0 0 210
0 210 65 0 c58 0 65 2 65 20 0 19 -7 20 -160 20 -153 0 -160 -1 -160 -20z"/>
<path d="M8990 2530 c0 -223 1 -230 20 -230 19 0 20 7 20 230 0 223 -1 230
-20 230 -19 0 -20 -7 -20 -230z"/>
<path d="M9150 2530 c0 -223 1 -230 20 -230 19 0 20 7 20 211 0 159 3 210 12
207 7 -3 51 -96 98 -209 l87 -204 46 -3 47 -3 0 230 0 231 -25 0 -25 0 0 -210
c0 -115 -4 -210 -8 -210 -4 0 -48 95 -96 210 l-89 210 -43 0 -44 0 0 -230z"/>
<path d="M9664 2750 c-104 -42 -130 -309 -39 -408 29 -32 39 -36 93 -40 34 -2
86 -1 117 3 l55 6 0 110 0 109 -60 0 c-53 0 -60 -2 -60 -20 0 -17 7 -20 40
-20 l41 0 -3 -72 -3 -73 -74 -3 c-122 -5 -151 32 -151 188 0 102 15 149 54
176 22 14 43 16 121 12 85 -5 95 -3 95 12 0 12 -11 19 -37 24 -53 8 -164 6
-189 -4z"/>
<path d="M4500 2480 c0 -19 7 -20 95 -20 88 0 95 1 95 20 0 19 -7 20 -95 20
-88 0 -95 -1 -95 -20z"/>
</g>
</svg>
